<?xml version="1.0" encoding="utf-8"?>
<!-- Generator: Adobe Illustrator 26.1.0, SVG Export Plug-In . SVG Version: 6.00 Build 0)  -->
<svg version="1.1" id="Layer_1" xmlns="http://www.w3.org/2000/svg" xmlns:xlink="http://www.w3.org/1999/xlink" x="0px" y="0px"
	 viewBox="0 0 983.3 364.5" style="enable-background:new 0 0 983.3 364.5;" xml:space="preserve">
<style type="text/css">
	.st0{fill:#001AD9;}
	.st1{font-family:'CommutersSans-Thin';}
	.st2{font-size:31.07px;}
	.st3{letter-spacing:5.3;}
	.st4{letter-spacing:4.3;}
</style>
<path class="st0" d="M277.5,145.2c40.6,0,80.8-7.5,118.7-22.1c36.3-14.1,72.4-34.4,100.1-62.3C511.1,46,523,28.2,528.1,7.7
	c1.2-4.8-4.3-9.9-8.8-6.8c-65.6,45-122.3,101-179.8,155.6c-55.2,52.5-112.1,104.1-178.2,142.8c-32.1,18.8-66.2,34.3-102.2,44.4
	c-8.8,2.5-17.7,4.6-26.7,6.4c-4.5,0.9-19.2,6.1-20.4-0.8c-1.3-7.2,5.1-15.2,8.9-20.7c5-7.2,10.6-14,16.7-20.3
	c25-26,57-44.2,89.6-59.2c36.6-16.8,75-29.3,114.2-38.4c39.4-9,79.4-15,119.6-17.8c19.8-1.5,39.5-2.1,59.3-2.6
	c13.6-0.4,29-2.3,40-11.1c5-4,8.4-9.7,9.6-16c0.6-3.5-1.6-8-5.8-7.6c-45.1,4-87.7,25.1-117.8,59c-3.6,4-0.2,12.4,5.8,10
	c78.1-30.8,157.5-57.9,238.2-81.1c22.8-6.6,45.6-12.8,68.6-18.8l-3.2-11.6l-128.8,54.4c-4.9,2.1-6.5,10.2,0,11.6
	c29.4,6.5,59.1,12.9,89.3,13.4c29.8,0.5,59.3-3.9,88.6-8.9s58.2-10.4,87.7-12.7c61.8-4.8,123.9,1.4,183.4,18.5
	c7.4,2.1,10.6-9.5,3.2-11.6C922.7,161.7,864.1,155,805.6,158c-29.2,1.5-58.1,6-86.9,11c-29.2,5.1-58.5,10.4-88.1,11.3
	c-34.2,1.1-67.3-5.6-100.5-12.9V179l128.8-54.2c6.9-2.9,4.5-13.6-3.2-11.6c-81.2,21.1-161.3,46-240.3,74.7
	c-22.3,8.1-44.4,16.5-66.5,25.2l5.8,10c27.9-31.5,67.4-51.8,109.3-55.5l-5.8-7.6c-2.4,13.7-18.8,16.9-30.5,17.9
	c-19.4,1.8-39.1,1.2-58.6,2.5c-41.4,2.6-82.5,8.2-123,17c-40,8.7-79.1,21.3-116.7,37.7c-34.1,15-67.6,33.3-94.7,59.3
	c-6.5,6.2-12.6,12.9-18.1,20C11.4,321,6,328.1,2.7,336c-2.7,6.5-4.3,14.7-0.5,21.2c4.7,8.1,13.8,8,21.9,6.7
	c37.5-6.1,73.7-18.7,107.9-35.2c69.7-33.7,130.1-83.5,186.6-135.8C378.4,137.4,435.2,78.1,500.7,29c8.1-6.1,16.4-12,24.7-17.7
	l-8.8-6.8c-8.8,35.4-39.2,60.3-68.6,79c-32.4,20.6-68.2,35.2-105.8,43c-21.3,4.4-42.9,6.7-64.7,6.6
	C269.8,133.1,269.8,145.1,277.5,145.2L277.5,145.2z"/>
<text transform="matrix(0.94 0 0 1 577.2002 244.7803)" class="st0 st1 st2 st3">MAKEUP M</text>
<text transform="matrix(0.94 0 0 1 800.0078 244.7803)" class="st0 st1 st2 st4">A</text>
<text transform="matrix(0.94 0 0 1 827.6348 244.7803)" class="st0 st1 st2 st3">G</text>
<text transform="matrix(0.94 0 0 1 856.9629 244.7803)" class="st0 st1 st2 st3">AZINE</text>
</svg>
