<svg id="Layer_1" data-name="Layer 1" xmlns="http://www.w3.org/2000/svg" viewBox="0 0 983.34 364.5"><defs><style>.cls-1{font-size:31.07px;font-family:CommutersSans-Thin, Commuters Sans;font-weight:200;letter-spacing:0.19em;}.cls-2{letter-spacing:0.15em;}.cls-3{letter-spacing:0.2em;}</style></defs><path d="M298.66,318.86a328.06,328.06,0,0,0,118.66-22.13c36.35-14.11,72.44-34.43,100.11-62.26,14.75-14.84,26.7-32.64,31.82-53.11,1.19-4.75-4.31-9.87-8.82-6.77-65.6,45-122.34,101-179.81,155.64C305.4,382.73,248.51,434.35,182.41,473c-32.15,18.79-66.25,34.32-102.15,44.41Q67,521.1,53.55,523.8c-4.47.9-19.17,6.11-20.4-.81-1.27-7.23,5.1-15.23,8.87-20.69A161,161,0,0,1,58.71,482c25-26,57-44.22,89.56-59.16,36.55-16.77,75-29.27,114.16-38.38a788,788,0,0,1,119.64-17.84c19.76-1.48,39.52-2.08,59.32-2.63,13.62-.38,29-2.29,40-11.15a26.45,26.45,0,0,0,9.58-16c.61-3.49-1.56-8-5.79-7.6-45.08,4-87.73,25.11-117.81,59-3.58,4-.19,12.41,5.84,10q117.1-46.21,238.23-81.14,34.17-9.84,68.59-18.75l-3.19-11.58L548,341.14c-4.89,2.06-6.45,10.16,0,11.58,29.41,6.46,59.07,12.85,89.3,13.41,29.75.55,59.33-3.89,88.56-8.89s58.19-10.44,87.7-12.72A519.12,519.12,0,0,1,997,363c7.44,2.12,10.61-9.45,3.19-11.57a533.66,533.66,0,0,0-173.44-19.8c-29.25,1.52-58.1,6-86.92,11-29.19,5.09-58.45,10.38-88.13,11.34-34.19,1.1-67.3-5.59-100.51-12.89v11.58L680,298.44c6.89-2.91,4.55-13.58-3.19-11.58Q555,318.45,436.48,361.53,403.07,373.7,370,386.76l5.84,10c27.9-31.47,67.36-51.79,109.32-55.52l-5.78-7.59c-2.41,13.67-18.81,16.87-30.52,17.92-19.42,1.76-39.14,1.2-58.62,2.49a824,824,0,0,0-123,17,624.31,624.31,0,0,0-116.72,37.68C116.4,423.76,82.93,442.05,55.85,468a182.65,182.65,0,0,0-18.09,20c-5.2,6.67-10.62,13.74-13.9,21.59-2.74,6.55-4.27,14.74-.52,21.24,4.66,8.08,13.77,8,21.88,6.68,37.49-6.1,73.73-18.74,107.86-35.24,69.71-33.69,130.13-83.54,186.6-135.85C399.52,311,456.32,251.72,521.76,202.68q12.18-9.12,24.73-17.73l-8.81-6.78c-8.84,35.36-39.16,60.28-68.59,79a318.49,318.49,0,0,1-105.76,43,313.63,313.63,0,0,1-64.67,6.61c-7.72,0-7.74,12,0,12Z" transform="translate(-21.11 -173.64)"/><text class="cls-1" transform="translate(577.2 244.78) scale(0.94 1)">MAKEUP M<tspan class="cls-2" x="237.03" y="0">A</tspan><tspan class="cls-3" x="266.42" y="0">G</tspan><tspan x="297.62" y="0">AZINE</tspan></text></svg>